<?xml version="1.0" encoding="utf-8"?>
<!-- Generator: Adobe Illustrator 22.1.0, SVG Export Plug-In . SVG Version: 6.00 Build 0)  -->
<svg version="1.1" id="Layer_1" xmlns="http://www.w3.org/2000/svg" xmlns:xlink="http://www.w3.org/1999/xlink" x="0px" y="0px"
	 viewBox="0 0 350 350" style="enable-background:new 0 0 350 350;" xml:space="preserve">
<style type="text/css">
	.st0{fill:#0286AE;stroke:#0286AE;stroke-width:3;stroke-miterlimit:10;}
</style>
<path class="st0" d="M338.1,243.1c-15.9-32.9-21.9-45.1-30.5-58.7c-13.1-20.6-46.9-23-46.9-23s5-12.7,6.6-29.1
	c1.9-19.2-12.8-45.4-30-70.4c-11.2-16.2-29.3-29-58.2-29c-28.5,0-50.8,9.7-63.2,28.6c-8.9,13.5-16.6,27.3-26.3,43.4
	c-13.2,21.8-5.8,51.6-5.8,51.6c8.9,22.7,7,18.6,16.2,38.7c9.6,21,5.7,34.2,1.3,41.6c-5.5,9.2-15.7,24.6-25.5,39.5
	c-9.8,14.9-48.1,0-34.5-28.4c2.6-5.4,35.2-58.9,35.2-58.9c-4-13.4-12.7-39.7-12.7-39.7S27.9,210,12.9,239.8
	c-27.7,54.9,53.5,105.1,89.6,51.1c14.3-21.4,29.1-50.2,29.1-50.2c7-15.5,0.9-40.6,0.9-40.6c-4.2-14.1-8-20.9-15.9-41.1
	c-8.1-20.3-2.2-35.8,0-39.9c6.3-11.4,22.3-39.4,22.3-39.4c-1.1,21.8,3.6,30.4,20.3,58.9c21.3,36.3,12.4,19.2,81.8,142
	C280,349.7,364.1,296.9,338.1,243.1z M267.7,267.6c-12.9-22.2-86.6-151.5-95.7-168c-14.6-26.3,21.8-48.1,37.8-21.4
	c8.9,14.9,24.4,39.9,24.4,39.9s3.8,8.4,3.8,20.2c0,9.1-4.3,20.2-4.3,20.2l14.2,27.2c0,0,8.9-0.9,19.2,2.8c10.3,3.8,17.8,15,17.8,15
	s16.1,29.1,24.4,46C325.7,282.8,284.6,296.7,267.7,267.6z"/>
</svg>
